<svg width="589" height="504" viewBox="0 0 589 504" fill="none" xmlns="http://www.w3.org/2000/svg">
<g filter="url(#filter0_f_16_30)">
<path fill-rule="evenodd" clip-rule="evenodd" d="M488.451 217.215C487.083 251.084 450.255 279.276 424.873 310.158C406.48 332.537 390.707 355.723 362.961 369.897C332.191 385.616 299.694 389.584 266.61 391.007C208.295 393.516 120.687 423.52 102.685 381.093C84.6819 338.661 168.837 297.556 209.433 256.247C233.32 231.94 258.646 212.924 287.727 192.799C336.439 159.09 378.527 94.6559 433.311 101.32C486.923 107.841 490.321 170.938 488.451 217.215Z" fill="url(#paint0_linear_16_30)" fill-opacity="0.65"/>
</g>
<defs>
<filter id="filter0_f_16_30" x="0.19519" y="0.84021" width="588.624" height="502.799" filterUnits="userSpaceOnUse" color-interpolation-filters="sRGB">
<feFlood flood-opacity="0" result="BackgroundImageFix"/>
<feBlend mode="normal" in="SourceGraphic" in2="BackgroundImageFix" result="shape"/>
<feGaussianBlur stdDeviation="50" result="effect1_foregroundBlur_16_30"/>
</filter>
<linearGradient id="paint0_linear_16_30" x1="252.289" y1="168.36" x2="341.891" y2="379.281" gradientUnits="userSpaceOnUse">
<stop stop-color="#A8FF78"/>
<stop offset="1" stop-color="#78FFD6"/>
</linearGradient>
</defs>
</svg>
