<svg width="75" height="75" viewBox="0 0 75 75" fill="none" xmlns="http://www.w3.org/2000/svg">
<g clip-path="url(#clip0_43_1313)">
<path d="M71.19 23.1562C71.49 22.3987 71.6287 21.9037 71.64 21.8549L74.1337 12.7912L69.4087 19.5487C67.7775 16.6537 65.76 13.9949 63.3825 11.6174C60.0187 8.25367 56.1037 5.61367 51.7425 3.76867C47.2275 1.85992 42.4312 0.888672 37.485 0.888672C32.5425 0.888672 27.7462 1.85617 23.2275 3.76867C18.8662 5.61367 14.9512 8.25367 11.5875 11.6174C8.2275 14.9774 5.5875 18.8962 3.7425 23.2574C1.83 27.7724 0.862499 32.5687 0.862499 37.5112C0.862499 42.4537 1.83 47.25 3.7425 51.7687C5.5875 56.13 8.2275 60.045 11.5912 63.4087C14.955 66.7725 18.87 69.4125 23.2312 71.2575C27.7462 73.1662 32.5425 74.1375 37.4887 74.1375C42.4312 74.1375 47.2275 73.17 51.7462 71.2575C56.1075 69.4125 60.0225 66.7725 63.3862 63.4087C66.75 60.045 69.39 56.13 71.235 51.7687C73.1437 47.2537 74.115 42.4574 74.115 37.5112C74.115 32.5687 73.1475 27.7724 71.235 23.2537C71.22 23.2237 71.205 23.1899 71.19 23.1562ZM67.1437 22.1999C65.4712 23.5199 63.1912 24.2512 60.24 24.4199C56.5762 24.6299 52.6912 23.9399 49.5675 23.3849C48.1312 23.1299 46.8712 22.9049 45.8812 22.8187C46.305 21.9974 46.5112 21.4162 46.5337 21.3562L46.5637 21.2699L46.5825 21.1799C47.4525 17.3999 46.665 13.6424 46.6312 13.4812L44.7975 4.93492C54.5287 7.12118 62.6662 13.5637 67.1437 22.1999ZM45.3675 31.5487C45.36 31.7324 45.2325 33.5737 43.3462 36.3524C41.7262 38.7374 40.455 40.3162 36.4462 41.2387C37.1475 39.7349 37.47 38.2987 37.41 36.9674C37.32 34.9724 37.1437 33.6562 37.0087 32.9062C37.5187 32.1824 38.52 30.8249 39.78 29.4899C41.9662 27.1724 43.9575 25.9424 45.3862 26.0324C46.2337 26.0849 47.5125 26.3137 48.9937 26.5762C51.75 27.0674 55.29 27.6974 58.8487 27.6974C60.9937 27.6974 63.1425 27.4687 65.1225 26.8424C63.0112 29.0474 60.4087 30.0524 57.3712 29.8312C53.1975 29.5237 50.1412 29.4449 48.2887 29.5987C46.9087 29.7112 45.9637 29.9512 45.54 30.7874L45.3375 31.1212L45.3675 31.5487ZM37.4887 70.8937C19.0837 70.8937 4.10625 55.9199 4.10625 37.5112C4.10625 19.1024 19.08 4.12867 37.4887 4.12867C39.7275 4.12867 41.9175 4.34992 44.0362 4.77367L43.425 13.7174C43.32 15.2512 42.51 19.6012 40.0575 21.2549C36.7087 23.5162 29.5162 24.9487 29.445 24.9637L28.4962 25.1512L24.4275 38.1712L23.955 39.4799L23.94 39.7162C23.9362 39.7724 23.5837 45.3299 20.67 49.7362C17.6587 54.2925 14.5687 57.015 14.5387 57.0412L13.2825 58.1325L14.4037 59.3587C14.55 59.52 15.9187 60.9675 18.3562 61.965C19.56 62.4562 21.1537 62.8837 23.0625 62.8837C24.7537 62.8837 26.6925 62.5462 28.8225 61.6237C35.0025 58.95 37.5862 56.82 38.5275 55.8712C39.5212 55.6387 41.8912 55.1025 43.8975 54.7987C44.805 54.66 46.47 54.1125 50.4187 50.9775C52.1212 49.6274 53.5725 48.3262 54.06 47.88C54.9037 47.4787 58.8037 45.7987 61.845 47.3737C63.9712 48.4725 65.3512 51.0112 65.9512 54.915C60.09 64.4925 49.5225 70.8937 37.4887 70.8937ZM68.22 50.5462C67.185 47.6549 65.55 45.6224 63.33 44.4824C58.3987 41.9437 52.6275 44.9699 52.3837 45.1012L52.2 45.1987L52.0462 45.3374C52.0312 45.3524 50.3587 46.8899 48.3975 48.4499C44.8612 51.2587 43.6312 51.5587 43.4212 51.5925C40.6762 52.0125 37.4287 52.8037 37.2937 52.8375L36.7162 52.9237L36.375 53.445C36.2025 53.6474 34.2862 55.7325 27.5475 58.65C23.04 60.6037 19.7362 59.2575 18.0562 58.1625C19.3462 56.8425 21.3712 54.5737 23.3887 51.5212C26.4375 46.9049 27.0637 41.3924 27.1725 40.1512L27.5137 39.2024L31.0312 27.9412C32.79 27.5474 36.6187 26.5912 39.69 25.1549C38.9512 25.7474 38.1975 26.4487 37.4325 27.2624C35.3962 29.4224 33.99 31.5899 33.93 31.6837L33.5137 32.2874L33.72 32.9962C33.7425 33.0862 34.05 34.3462 34.17 37.1099C34.26 39.1537 32.595 41.5912 31.9462 42.3599L29.28 45.4799L33.36 45.0224C37.065 44.6062 39.5962 43.9012 41.5612 42.7349C43.47 41.6024 44.73 40.0912 46.0312 38.1712C47.5912 35.8724 48.2137 34.0087 48.4575 32.8312C49.5037 32.7374 51.8962 32.6774 57.1387 33.0599C61.7475 33.3974 65.73 31.5412 68.6587 27.6862C68.8387 27.4499 69.0075 27.2137 69.1687 26.9812C70.2712 30.2924 70.8712 33.8324 70.8712 37.5112C70.8675 42.1349 69.9225 46.5412 68.22 50.5462Z" fill="white"/>
<path d="M27.1725 52.9761C27.1725 52.9761 28.9762 50.9361 31.0838 50.4036C33.1913 49.8749 35.5163 46.6948 35.5163 46.6948C35.5163 46.6948 34.7025 50.8911 32.7787 52.0124C30.8512 53.1374 27.1725 52.9761 27.1725 52.9761Z" fill="white"/>
</g>
<defs>
<clipPath id="clip0_43_1313">
<rect width="75" height="75" fill="white"/>
</clipPath>
</defs>
</svg>
