{
	"asset": {
		"generator": "Khronos glTF Blender I/O v4.1.63",
		"version": "2.0"
	},
	"scene": 0,
	"scenes": [
		{
			"name": "Scene",
			"nodes": [0]
		}
	],
	"nodes": [
		{
			"mesh": 0,
			"name": "Cube",
			"rotation": [0, 0.00012047031486872584, 0, 1],
			"translation": [0.005832076072692871, 1, 0.006578683853149414]
		}
	],
	"materials": [
		{
			"doubleSided": true,
			"name": "Material",
			"pbrMetallicRoughness": {
				"baseColorTexture": {
					"index": 0
				},
				"metallicFactor": 0.09365558624267578,
				"roughnessFactor": 0.5
			}
		}
	],
	"meshes": [
		{
			"name": "Cube",
			"primitives": [
				{
					"attributes": {
						"POSITION": 0,
						"NORMAL": 1,
						"TEXCOORD_0": 2
					},
					"indices": 3,
					"material": 0
				}
			]
		}
	],
	"textures": [
		{
			"sampler": 0,
			"source": 0
		}
	],
	"images": [
		{
			"mimeType": "image/png",
			"name": "Untitled",
			"uri": "Untitled.png"
		}
	],
	"accessors": [
		{
			"bufferView": 0,
			"componentType": 5126,
			"count": 1509,
			"max": [1.5248229503631592, 1.0005652904510498, 1],
			"min": [-1, -1.0734238624572754, -1],
			"type": "VEC3"
		},
		{
			"bufferView": 1,
			"componentType": 5126,
			"count": 1509,
			"type": "VEC3"
		},
		{
			"bufferView": 2,
			"componentType": 5126,
			"count": 1509,
			"type": "VEC2"
		},
		{
			"bufferView": 3,
			"componentType": 5123,
			"count": 5076,
			"type": "SCALAR"
		}
	],
	"bufferViews": [
		{
			"buffer": 0,
			"byteLength": 18108,
			"byteOffset": 0,
			"target": 34962
		},
		{
			"buffer": 0,
			"byteLength": 18108,
			"byteOffset": 18108,
			"target": 34962
		},
		{
			"buffer": 0,
			"byteLength": 12072,
			"byteOffset": 36216,
			"target": 34962
		},
		{
			"buffer": 0,
			"byteLength": 10152,
			"byteOffset": 48288,
			"target": 34963
		}
	],
	"samplers": [
		{
			"magFilter": 9729,
			"minFilter": 9987
		}
	],
	"buffers": [
		{
			"byteLength": 58440,
			"uri": "oldpc.bin"
		}
	]
}
